<svg xmlns="http://www.w3.org/2000/svg" width="23.333" height="23.333" viewBox="0 0 23.333 23.333"><g id="Group_808" data-name="Group 808" transform="translate(-69.333 -821)"><path id="Path_1474" fill="#e5ebef" d="M31.333,24.5a2.667,2.667,0,0,1-2.667,2.667h-15.5L8,32.333V11.667A2.667,2.667,0,0,1,10.667,9h18a2.667,2.667,0,0,1,2.667,2.667Z" data-name="Path 1474" transform="translate(61.333 812)"/><path id="Path_1475" fill="#00378b" d="M13.733,15.267A1.667,1.667,0,1,1,12.067,13.6a1.667,1.667,0,0,1,1.667,1.667" data-name="Path 1475" transform="translate(62.934 815.066)"/><path id="Path_1476" fill="#00378b" d="M17.333,15.267A1.667,1.667,0,1,1,15.667,13.6a1.667,1.667,0,0,1,1.667,1.667" data-name="Path 1476" transform="translate(65.333 815.066)"/><path id="Path_1477" fill="#00378b" d="M20.933,15.267A1.667,1.667,0,1,1,19.267,13.6a1.667,1.667,0,0,1,1.667,1.667" data-name="Path 1477" transform="translate(67.733 815.066)"/></g></svg>